<svg width="24" height="24" viewBox="0 0 24 24" fill="none" xmlns="http://www.w3.org/2000/svg">
<g clip-path="url(#clip0_18_1186)">
<path d="M0.75 11.25H23.25" stroke="#04070D" stroke-width="1.5" stroke-linecap="round" stroke-linejoin="round"/>
<path d="M7.125 19.5C8.57475 19.5 9.75 18.3247 9.75 16.875C9.75 15.4253 8.57475 14.25 7.125 14.25C5.67525 14.25 4.5 15.4253 4.5 16.875C4.5 18.3247 5.67525 19.5 7.125 19.5Z" stroke="#04070D" stroke-width="1.5" stroke-linecap="round" stroke-linejoin="round"/>
<path d="M16.875 19.5C18.3247 19.5 19.5 18.3247 19.5 16.875C19.5 15.4253 18.3247 14.25 16.875 14.25C15.4253 14.25 14.25 15.4253 14.25 16.875C14.25 18.3247 15.4253 19.5 16.875 19.5Z" stroke="#04070D" stroke-width="1.5" stroke-linecap="round" stroke-linejoin="round"/>
<path d="M9.72375 17.25H14.2763" stroke="#04070D" stroke-width="1.5" stroke-linecap="round" stroke-linejoin="round"/>
<path d="M3.75 11.25L8.42719 4.80846C8.4951 4.71545 8.58352 4.63933 8.68559 4.586C8.78767 4.53267 8.90065 4.50356 9.01579 4.50093C9.13092 4.4983 9.24512 4.52222 9.34952 4.57084C9.45392 4.61946 9.54572 4.69146 9.61781 4.78128L10.8309 6.18753C10.9715 6.36238 11.1495 6.50348 11.3518 6.60042C11.5542 6.69736 11.7756 6.74769 12 6.74769C12.2244 6.74769 12.4458 6.69736 12.6482 6.60042C12.8505 6.50348 13.0285 6.36238 13.1691 6.18753L14.3822 4.78128C14.4543 4.69146 14.5461 4.61946 14.6505 4.57084C14.7549 4.52222 14.8691 4.4983 14.9842 4.50093C15.0993 4.50356 15.2123 4.53267 15.3144 4.586C15.4165 4.63933 15.5049 4.71545 15.5728 4.80846L20.25 11.25" stroke="#04070D" stroke-width="1.5" stroke-linecap="round" stroke-linejoin="round"/>
</g>
<defs>
<clipPath id="clip0_18_1186">
<rect width="24" height="24" fill="white" style="fill:white;fill-opacity:1;"/>
</clipPath>
</defs>
</svg>
